<svg width="15" height="15" viewBox="0 0 15 15" fill="none" xmlns="http://www.w3.org/2000/svg">
<path fill-rule="evenodd" clip-rule="evenodd" d="M6.306 7.49999C6.306 7.34313 6.3369 7.1878 6.39693 7.04288C6.45695 6.89795 6.54494 6.76627 6.65586 6.65535C6.76678 6.54443 6.89846 6.45645 7.04338 6.39642C7.18831 6.33639 7.34364 6.30549 7.5005 6.30549C7.65736 6.30549 7.81269 6.33639 7.95762 6.39642C8.10254 6.45645 8.23422 6.54443 8.34514 6.65535C8.45606 6.76627 8.54405 6.89795 8.60407 7.04288C8.6641 7.1878 8.695 7.34313 8.695 7.49999C8.695 7.81693 8.5691 8.12088 8.34499 8.34499C8.12089 8.56909 7.81693 8.69499 7.5 8.69499C7.18307 8.69499 6.87911 8.56909 6.65501 8.34499C6.4309 8.12088 6.305 7.81693 6.305 7.49999M1.194 7.49999C1.194 7.18306 1.3199 6.87911 1.54401 6.655C1.76811 6.43089 2.07207 6.30499 2.389 6.30499C2.70593 6.30499 3.00989 6.43089 3.23399 6.655C3.4581 6.87911 3.584 7.18306 3.584 7.49999C3.584 7.81693 3.4581 8.12088 3.23399 8.34499C3.00989 8.56909 2.70593 8.69499 2.389 8.69499C2.07207 8.69499 1.76811 8.56909 1.54401 8.34499C1.3199 8.12088 1.194 7.81693 1.194 7.49999ZM11.417 7.49999C11.417 7.18319 11.5428 6.87937 11.7669 6.65535C11.9909 6.43134 12.2947 6.30549 12.6115 6.30549C12.9283 6.30549 13.2321 6.43134 13.4561 6.65535C13.6802 6.87937 13.806 7.18319 13.806 7.49999C13.806 7.81693 13.6801 8.12088 13.456 8.34499C13.2319 8.56909 12.9279 8.69499 12.611 8.69499C12.2941 8.69499 11.9901 8.56909 11.766 8.34499C11.5419 8.12088 11.417 7.81693 11.417 7.49999Z" fill="#52525B"/>
</svg>
