<svg width="16" height="16" viewBox="0 0 16 16" fill="none" xmlns="http://www.w3.org/2000/svg">
<g clip-path="url(#clip0_1_443)">
<path d="M5.25 10C7.04493 10 8.5 8.54493 8.5 6.75C8.5 4.95507 7.04493 3.5 5.25 3.5C3.45507 3.5 2 4.95507 2 6.75C2 8.54493 3.45507 10 5.25 10Z" stroke="#52525B" stroke-width="1.3125" stroke-linecap="round" stroke-linejoin="round"/>
<path d="M0.8125 12.25C1.32324 11.5525 1.9912 10.9853 2.7622 10.5942C3.5332 10.2032 4.38551 9.9994 5.25 9.9994C6.11449 9.9994 6.9668 10.2032 7.7378 10.5942C8.5088 10.9853 9.17676 11.5525 9.6875 12.25" stroke="#52525B" stroke-width="1.3125" stroke-linecap="round" stroke-linejoin="round"/>
<path d="M10.75 10C11.6146 9.99923 12.4671 10.2026 13.2382 10.5936C14.0093 10.9846 14.6772 11.5521 15.1875 12.25" stroke="#52525B" stroke-width="1.3125" stroke-linecap="round" stroke-linejoin="round"/>
<path d="M9.91375 3.60875C10.3605 3.49019 10.8273 3.46827 11.2832 3.54447C11.7391 3.62066 12.1734 3.79321 12.5573 4.05059C12.9412 4.30798 13.2658 4.64429 13.5094 5.03707C13.753 5.42985 13.91 5.87007 13.97 6.32835C14.0299 6.78664 13.9915 7.25244 13.8571 7.69467C13.7228 8.1369 13.4957 8.54539 13.1909 8.89288C12.8862 9.24037 12.5108 9.51887 12.0899 9.70978C11.669 9.9007 11.2122 9.99964 10.75 10" stroke="#52525B" stroke-width="1.3125" stroke-linecap="round" stroke-linejoin="round"/>
</g>
<defs>
<clipPath id="clip0_1_443">
<rect width="16" height="16" fill="white"/>
</clipPath>
</defs>
</svg>
