<svg width="31" height="18" viewBox="0 0 31 18" fill="none" xmlns="http://www.w3.org/2000/svg">
<g clip-path="url(#clip0_62_1209)">
<path d="M1 5C1 2.79086 2.79086 1 5 1H26C28.2091 1 30 2.79086 30 5V13C30 15.2091 28.2091 17 26 17H5C2.79086 17 1 15.2091 1 13V5Z" fill="#FAFAFA"/>
<path d="M9.03498 13.1321C8.39009 13.1321 7.83469 12.9943 7.36879 12.7188C6.90572 12.4403 6.54776 12.0497 6.29492 11.5469C6.04492 11.0412 5.91992 10.4489 5.91992 9.76989C5.91992 9.09943 6.04492 8.50852 6.29492 7.99716C6.54776 7.4858 6.90004 7.08665 7.35174 6.79972C7.80629 6.51278 8.33754 6.36932 8.94549 6.36932C9.31481 6.36932 9.67276 6.4304 10.0194 6.55256C10.3659 6.67472 10.677 6.86648 10.9526 7.12784C11.2282 7.3892 11.4455 7.72869 11.6046 8.14631C11.7637 8.56108 11.8432 9.06534 11.8432 9.65909V10.1108H6.64009V9.15625H10.5946C10.5946 8.82102 10.5265 8.52415 10.3901 8.26562C10.2537 8.00426 10.062 7.7983 9.81481 7.64773C9.57049 7.49716 9.28356 7.42188 8.95401 7.42188C8.59606 7.42188 8.28356 7.50994 8.01651 7.68608C7.75231 7.85937 7.54776 8.08665 7.40288 8.3679C7.26083 8.64631 7.18981 8.94886 7.18981 9.27557V10.0213C7.18981 10.4588 7.26651 10.831 7.41992 11.1378C7.57617 11.4446 7.7935 11.679 8.07191 11.8409C8.35032 12 8.6756 12.0795 9.04776 12.0795C9.28924 12.0795 9.50941 12.0455 9.70827 11.9773C9.90714 11.9062 10.079 11.8011 10.2239 11.6619C10.3688 11.5227 10.4796 11.3509 10.5563 11.1463L11.7623 11.3636C11.6657 11.7187 11.4924 12.0298 11.2424 12.2969C10.9952 12.5611 10.6841 12.767 10.3091 12.9148C9.93697 13.0597 9.51225 13.1321 9.03498 13.1321ZM18.1618 8.05256L17.0069 8.2571C16.9586 8.10937 16.8819 7.96875 16.7768 7.83523C16.6745 7.7017 16.5353 7.59233 16.3592 7.5071C16.1831 7.42187 15.9629 7.37926 15.6987 7.37926C15.3379 7.37926 15.0368 7.46023 14.7953 7.62216C14.5538 7.78125 14.4331 7.98722 14.4331 8.24006C14.4331 8.45881 14.514 8.63494 14.676 8.76847C14.8379 8.90199 15.0993 9.01136 15.46 9.09659L16.4998 9.33523C17.1021 9.47443 17.551 9.68892 17.8464 9.97869C18.1419 10.2685 18.2896 10.6449 18.2896 11.108C18.2896 11.5 18.176 11.8494 17.9487 12.1562C17.7243 12.4602 17.4103 12.6989 17.0069 12.8722C16.6064 13.0455 16.1419 13.1321 15.6135 13.1321C14.8805 13.1321 14.2825 12.9759 13.8194 12.6634C13.3564 12.348 13.0723 11.9006 12.9672 11.321L14.1987 11.1335C14.2754 11.4545 14.4331 11.6974 14.6717 11.8622C14.9103 12.0241 15.2214 12.1051 15.6049 12.1051C16.0225 12.1051 16.3564 12.0185 16.6064 11.8452C16.8564 11.669 16.9814 11.4545 16.9814 11.2017C16.9814 10.9972 16.9047 10.8253 16.7512 10.6861C16.6007 10.5469 16.3691 10.4418 16.0566 10.3707L14.9487 10.1278C14.3379 9.98864 13.8862 9.76705 13.5936 9.46307C13.3038 9.15909 13.1589 8.77415 13.1589 8.30824C13.1589 7.92187 13.2669 7.58381 13.4828 7.29403C13.6987 7.00426 13.997 6.77841 14.3777 6.61648C14.7583 6.4517 15.1944 6.36932 15.6859 6.36932C16.3933 6.36932 16.9501 6.52273 17.3564 6.82955C17.7626 7.13352 18.0311 7.54119 18.1618 8.05256ZM22.4476 13.1321C21.8141 13.1321 21.2686 12.9886 20.8113 12.7017C20.3567 12.4119 20.0073 12.0128 19.763 11.5043C19.5186 10.9957 19.3965 10.4134 19.3965 9.7571C19.3965 9.09233 19.5215 8.50568 19.7715 7.99716C20.0215 7.4858 20.3738 7.08665 20.8283 6.79972C21.2828 6.51278 21.8184 6.36932 22.4348 6.36932C22.932 6.36932 23.3752 6.46165 23.7644 6.64631C24.1536 6.82812 24.4675 7.08381 24.7061 7.41335C24.9476 7.7429 25.0911 8.12784 25.1365 8.56818H23.8965C23.8283 8.26136 23.6721 7.99716 23.4277 7.77557C23.1863 7.55398 22.8624 7.44318 22.4561 7.44318C22.101 7.44318 21.79 7.53693 21.5229 7.72443C21.2587 7.90909 21.0527 8.1733 20.905 8.51705C20.7573 8.85795 20.6834 9.26136 20.6834 9.72727C20.6834 10.2045 20.7559 10.6165 20.9007 10.9631C21.0456 11.3097 21.2502 11.5781 21.5144 11.7685C21.7814 11.9588 22.0953 12.054 22.4561 12.054C22.6976 12.054 22.9164 12.0099 23.1124 11.9219C23.3113 11.831 23.4775 11.7017 23.611 11.5341C23.7473 11.3665 23.8425 11.1648 23.8965 10.929H25.1365C25.0911 11.3523 24.9533 11.7301 24.7232 12.0625C24.4931 12.3949 24.1848 12.6562 23.7985 12.8466C23.415 13.0369 22.9647 13.1321 22.4476 13.1321Z" fill="#52525B"/>
</g>
<path d="M26 0.5C28.4853 0.5 30.5 2.51472 30.5 5V13C30.5 15.4853 28.4853 17.5 26 17.5H5C2.51472 17.5 0.5 15.4853 0.5 13V5C0.5 2.51472 2.51472 0.5 5 0.5H26Z" stroke="#E4E4E7"/>
<defs>
<clipPath id="clip0_62_1209">
<path d="M1 5C1 2.79086 2.79086 1 5 1H26C28.2091 1 30 2.79086 30 5V13C30 15.2091 28.2091 17 26 17H5C2.79086 17 1 15.2091 1 13V5Z" fill="white"/>
</clipPath>
</defs>
</svg>
