<svg xmlns="http://www.w3.org/2000/svg" width="24" height="24" viewBox="0 0 24 24" fill="none">
<g id="eye (1) 1">
<g id="Group 1686557097">
<path id="Vector" d="M12.0009 15.5448C13.7014 15.5448 15.08 14.1663 15.08 12.4658C15.08 10.7653 13.7014 9.38672 12.0009 9.38672C10.3004 9.38672 8.92188 10.7653 8.92188 12.4658C8.92188 14.1663 10.3004 15.5448 12.0009 15.5448Z" fill="#26da80"/>
<path id="Vector_2" d="M21.6933 11.6131C19.3265 8.75305 15.7438 6 12.0001 6C8.25555 6 4.67205 8.75497 2.30685 11.6131C1.89772 12.1073 1.89772 12.8247 2.30685 13.3189C2.90149 14.0375 4.14811 15.4246 5.8131 16.6365C10.0063 19.6891 13.9845 19.6958 18.187 16.6365C19.852 15.4246 21.0986 14.0375 21.6933 13.3189C22.1012 12.8257 22.1033 12.1089 21.6933 11.6131ZM12.0001 8.15533C14.3771 8.15533 16.3107 10.089 16.3107 12.466C16.3107 14.843 14.3771 16.7766 12.0001 16.7766C9.62303 16.7766 7.68939 14.843 7.68939 12.466C7.68939 10.089 9.62303 8.15533 12.0001 8.15533Z" fill="#26da80"/>
</g>
</g>
</svg>