<svg width="15" height="15" viewBox="0 0 15 15" fill="none" xmlns="http://www.w3.org/2000/svg">
<path fill-rule="evenodd" clip-rule="evenodd" d="M7.5 0.347C6.18125 0.347265 4.91661 0.871322 3.9842 1.80391C3.0518 2.7365 2.528 4.00125 2.528 5.32V9.542C2.528 10.11 2.068 10.569 1.5 10.569C1.30109 10.569 1.11032 10.648 0.96967 10.7887C0.829018 10.9293 0.75 11.1201 0.75 11.319C0.75 11.5179 0.829018 11.7087 0.96967 11.8493C1.11032 11.99 1.30109 12.069 1.5 12.069H13.5C13.6989 12.069 13.8897 11.99 14.0303 11.8493C14.171 11.7087 14.25 11.5179 14.25 11.319C14.25 11.1201 14.171 10.9293 14.0303 10.7887C13.8897 10.648 13.6989 10.569 13.5 10.569C12.932 10.569 12.472 10.109 12.472 9.542V5.32C12.472 4.00125 11.9482 2.7365 11.0158 1.80391C10.0834 0.871322 8.81875 0.347265 7.5 0.347ZM10.972 9.542C10.972 9.908 11.05 10.255 11.19 10.569H3.81C3.95454 10.246 4.02884 9.8959 4.028 9.542V5.32C4.04976 4.4136 4.42511 3.55164 5.07386 2.91827C5.72262 2.2849 6.59334 1.93034 7.5 1.93034C8.40666 1.93034 9.27738 2.2849 9.92614 2.91827C10.5749 3.55164 10.9502 4.4136 10.972 5.32V9.542ZM8.567 12.875C8.63317 12.8749 8.69852 12.8896 8.75828 12.918C8.81804 12.9464 8.87069 12.9878 8.91239 13.0392C8.95408 13.0906 8.98377 13.1506 8.99928 13.215C9.01478 13.2793 9.01571 13.3463 9.002 13.411C8.848 14.141 8.231 14.653 7.501 14.653C6.771 14.653 6.153 14.142 6 13.41C5.9865 13.3454 5.98755 13.2785 6.00307 13.2144C6.01859 13.1502 6.0482 13.0903 6.08975 13.039C6.1313 12.9877 6.18375 12.9462 6.24329 12.9177C6.30283 12.8892 6.36798 12.8742 6.434 12.874L8.567 12.875Z" fill="#71717A"/>
</svg>
