<svg width="15" height="15" viewBox="0 0 15 15" fill="none" xmlns="http://www.w3.org/2000/svg">
<mask id="mask0_1_419" style="mask-type:luminance" maskUnits="userSpaceOnUse" x="0" y="0" width="15" height="15">
<path d="M0 0H15V15H0V0Z" fill="white"/>
</mask>
<g mask="url(#mask0_1_419)">
<path fill-rule="evenodd" clip-rule="evenodd" d="M1.631 0.369998C1.4392 0.324977 1.23738 0.357236 1.06917 0.459803C0.900953 0.56237 0.779853 0.727007 0.732038 0.918134C0.684224 1.10926 0.713535 1.31153 0.813637 1.48122C0.913738 1.65091 1.07659 1.7744 1.267 1.825L2.468 2.125C2.49474 2.13179 2.51887 2.14633 2.53737 2.16679C2.55588 2.18725 2.56792 2.21272 2.572 2.24L2.81 3.855L2.815 3.893L3.478 8.394C3.03386 8.49793 2.64332 8.76129 2.38048 9.13409C2.11764 9.50689 2.00078 9.9632 2.05209 10.4165C2.1034 10.8697 2.31929 11.2883 2.65881 11.593C2.99834 11.8976 3.43786 12.067 3.894 12.069H13.449C13.6479 12.069 13.8387 11.99 13.9793 11.8493C14.12 11.7087 14.199 11.5179 14.199 11.319C14.199 11.1201 14.12 10.9293 13.9793 10.7887C13.8387 10.648 13.6479 10.569 13.449 10.569H3.894C3.8029 10.5622 3.71773 10.5212 3.65558 10.4543C3.59343 10.3873 3.55889 10.2994 3.55889 10.208C3.55889 10.1166 3.59343 10.0287 3.65558 9.96172C3.71773 9.89476 3.8029 9.85378 3.894 9.847H4.297C4.32465 9.84815 4.35235 9.84815 4.38 9.847H11.475C12.179 9.847 12.807 9.397 13.031 8.726L14.215 5.171C14.2968 4.92463 14.319 4.66236 14.2797 4.40575C14.2404 4.14914 14.1408 3.90553 13.989 3.69494C13.8372 3.48436 13.6375 3.31282 13.4065 3.19444C13.1754 3.07606 12.9196 3.01422 12.66 3.014H4.202L4.056 2.022C4.00872 1.70079 3.86716 1.40085 3.64926 1.16017C3.43137 0.919484 3.14693 0.74889 2.832 0.669998L1.631 0.369998ZM4.423 4.514L4.987 8.347H11.475C11.535 8.347 11.589 8.309 11.607 8.253L12.792 4.697C12.7992 4.67609 12.8013 4.65375 12.7981 4.63187C12.7948 4.60998 12.7864 4.5892 12.7735 4.57126C12.7605 4.55332 12.7435 4.53875 12.7237 4.52879C12.704 4.51882 12.6821 4.51375 12.66 4.514H4.423ZM3.227 14.653C3.52166 14.653 3.80424 14.5359 4.0126 14.3276C4.22095 14.1192 4.338 13.8367 4.338 13.542C4.338 13.2473 4.22095 12.9648 4.0126 12.7564C3.80424 12.548 3.52166 12.431 3.227 12.431C2.93234 12.431 2.64976 12.548 2.4414 12.7564C2.23305 12.9648 2.116 13.2473 2.116 13.542C2.116 13.8367 2.23305 14.1192 2.4414 14.3276C2.64976 14.5359 2.93234 14.653 3.227 14.653ZM13.672 13.542C13.672 13.8368 13.5549 14.1195 13.3464 14.3279C13.138 14.5364 12.8553 14.6535 12.5605 14.6535C12.2657 14.6535 11.983 14.5364 11.7746 14.3279C11.5661 14.1195 11.449 13.8368 11.449 13.542C11.449 13.2472 11.5661 12.9645 11.7746 12.756C11.983 12.5476 12.2657 12.4305 12.5605 12.4305C12.8553 12.4305 13.138 12.5476 13.3464 12.756C13.5549 12.9645 13.672 13.2472 13.672 13.542Z" fill="#52525B"/>
</g>
</svg>
