<svg width="14" height="14" viewBox="0 0 14 14" fill="none" xmlns="http://www.w3.org/2000/svg">
<g clip-path="url(#clip0_1_426)">
<path d="M2.31547 7.56547C2.23358 7.48349 2.18755 7.37236 2.1875 7.25648V2.1875H7.25648C7.37236 2.18755 7.48349 2.23358 7.56547 2.31547L12.997 7.74703C13.079 7.82907 13.1251 7.94031 13.1251 8.05629C13.1251 8.17227 13.079 8.28351 12.997 8.36555L8.36719 12.997C8.28515 13.079 8.17391 13.1251 8.05793 13.1251C7.94195 13.1251 7.83071 13.079 7.74867 12.997L2.31547 7.56547Z" stroke="#52525B" stroke-width="1.5" stroke-linecap="round" stroke-linejoin="round"/>
<path d="M4.6875 5.4375C5.10171 5.4375 5.4375 5.10171 5.4375 4.6875C5.4375 4.27329 5.10171 3.9375 4.6875 3.9375C4.27329 3.9375 3.9375 4.27329 3.9375 4.6875C3.9375 5.10171 4.27329 5.4375 4.6875 5.4375Z" fill="#52525B"/>
</g>
<defs>
<clipPath id="clip0_1_426">
<rect width="14" height="14" fill="white"/>
</clipPath>
</defs>
</svg>
