<svg width="16" height="16" viewBox="0 0 16 16" fill="none" xmlns="http://www.w3.org/2000/svg">
<g clip-path="url(#clip0_1_477)">
<path d="M8 10.5C9.38071 10.5 10.5 9.38071 10.5 8C10.5 6.61929 9.38071 5.5 8 5.5C6.61929 5.5 5.5 6.61929 5.5 8C5.5 9.38071 6.61929 10.5 8 10.5Z" stroke="#52525B" stroke-width="1.5" stroke-linecap="round" stroke-linejoin="round"/>
<path d="M2.58937 11.1306C2.31311 10.6548 2.10145 10.1443 1.96 9.61252L3.00875 8.30002C2.99687 8.09936 2.99687 7.89818 3.00875 7.69752L1.96062 6.38502C2.10184 5.8532 2.31306 5.34248 2.58875 4.86627L4.25812 4.67877C4.39143 4.52858 4.53356 4.38645 4.68375 4.25315L4.87125 2.5844C5.34677 2.31002 5.85665 2.10006 6.3875 1.96002L7.7 3.00877C7.90066 2.9969 8.10184 2.9969 8.3025 3.00877L9.615 1.96065C10.1468 2.10186 10.6575 2.31308 11.1337 2.58877L11.3212 4.25815C11.4714 4.39145 11.6136 4.53358 11.7469 4.68377L13.4156 4.87127C13.6919 5.34712 13.9035 5.85766 14.045 6.3894L12.9962 7.7019C13.0081 7.90255 13.0081 8.10374 12.9962 8.3044L14.0444 9.6169C13.9041 10.1486 13.694 10.6593 13.4194 11.1356L11.75 11.3231C11.6167 11.4733 11.4746 11.6155 11.3244 11.7488L11.1369 13.4175C10.661 13.6938 10.1505 13.9054 9.61875 14.0469L8.30625 12.9981C8.10559 13.01 7.90441 13.01 7.70375 12.9981L6.39125 14.0463C5.85958 13.906 5.34887 13.6959 4.8725 13.4213L4.685 11.7519C4.53481 11.6186 4.39268 11.4765 4.25937 11.3263L2.58937 11.1306Z" stroke="#52525B" stroke-width="1.5" stroke-linecap="round" stroke-linejoin="round"/>
</g>
<defs>
<clipPath id="clip0_1_477">
<rect width="16" height="16" fill="white"/>
</clipPath>
</defs>
</svg>
