<svg width="19" height="20" viewBox="0 0 19 20" fill="none" xmlns="http://www.w3.org/2000/svg">
<path d="M5.26628 13.0154C5.29254 13.1103 5.33725 13.1992 5.39785 13.2768C5.45845 13.3545 5.53375 13.4195 5.61946 13.4681C5.70517 13.5166 5.7996 13.5478 5.89737 13.5599C5.99514 13.572 6.09433 13.5647 6.18928 13.5384C6.28422 13.5121 6.37307 13.4674 6.45073 13.4068C6.5284 13.3462 6.59337 13.2709 6.64194 13.1852C6.6905 13.0995 6.72171 13.0051 6.73378 12.9073C6.74585 12.8095 6.73854 12.7103 6.71228 12.6154L5.26628 13.0154ZM0.960278 2.47539C0.864959 2.44755 0.76506 2.43892 0.666378 2.44999C0.567695 2.46106 0.472193 2.49162 0.385414 2.53989C0.298635 2.58816 0.222305 2.65319 0.160855 2.73119C0.0994041 2.8092 0.0540556 2.89863 0.0274405 2.9943C0.000825407 3.08996 -0.00652642 3.18997 0.00581164 3.2885C0.0181497 3.38703 0.049932 3.48213 0.0993144 3.56828C0.148697 3.65444 0.214696 3.72993 0.293483 3.79037C0.37227 3.85081 0.462276 3.89501 0.558279 3.92039L0.960278 2.47539ZM17.9483 13.4754C18.0459 13.4528 18.1381 13.4109 18.2193 13.3521C18.3004 13.2933 18.369 13.2188 18.4209 13.1331C18.4728 13.0473 18.507 12.952 18.5215 12.8529C18.5359 12.7537 18.5304 12.6526 18.5051 12.5556C18.4798 12.4586 18.4354 12.3677 18.3744 12.2881C18.3133 12.2086 18.237 12.1421 18.1499 12.0926C18.0627 12.0431 17.9665 12.0115 17.867 11.9998C17.7674 11.9881 17.6665 11.9965 17.5703 12.0244L17.9483 13.4754ZM7.95728 15.3094C8.26728 16.4294 7.58728 17.6124 6.38328 17.9254L6.76028 19.3764C8.73728 18.8634 9.94528 16.8744 9.40328 14.9094L7.95728 15.3094ZM6.38328 17.9254C5.17128 18.2404 3.95528 17.5364 3.64328 16.4064L2.19728 16.8064C2.73728 18.7614 4.79128 19.8884 6.76028 19.3764L6.38328 17.9254ZM3.64328 16.4064C3.33328 15.2864 4.01328 14.1034 5.21728 13.7904L4.84028 12.3404C2.86328 12.8534 1.65428 14.8414 2.19728 16.8064L3.64328 16.4064ZM5.21728 13.7904C6.42928 13.4754 7.64528 14.1794 7.95728 15.3094L9.40328 14.9094C8.86328 12.9544 6.80928 11.8274 4.84028 12.3394L5.21728 13.7904ZM6.71228 12.6154L4.56028 4.82539L3.11428 5.22539L5.26628 13.0154L6.71228 12.6154ZM2.66428 2.94739L0.960278 2.47539L0.558279 3.92039L2.26328 4.39339L2.66428 2.94739ZM4.56028 4.82539C4.43313 4.37538 4.19171 3.96592 3.85947 3.63684C3.52723 3.30775 3.11549 3.07024 2.66428 2.94739L2.26528 4.39339C2.69028 4.51139 3.00628 4.83439 3.11428 5.22539L4.56028 4.82539ZM8.87028 15.8354L17.9483 13.4754L17.5713 12.0244L8.49228 14.3844L8.87028 15.8354Z" fill="#2E7D32"/>
<path d="M16.9257 3.98649C16.4407 2.23049 16.1977 1.35249 15.4857 0.953486C14.7717 0.553486 13.8667 0.789486 12.0567 1.26049L10.1367 1.75849C8.32669 2.22849 7.42169 2.46449 7.01069 3.15649C6.59869 3.84749 6.84069 4.72549 7.32569 6.48049L7.84069 8.34349C8.32569 10.0985 8.56769 10.9765 9.28069 11.3755C9.99369 11.7755 10.8987 11.5395 12.7087 11.0695L14.6287 10.5695C16.4387 10.0995 17.3437 9.86449 17.7557 9.17349C17.9817 8.79349 18.0107 8.35749 17.9097 7.75049" stroke="#2E7D32" stroke-width="1.5" stroke-linecap="round"/>
</svg>
