<svg width="14" height="14" viewBox="0 0 14 14" fill="none" xmlns="http://www.w3.org/2000/svg">
<path d="M10.5002 5.83333C10.3455 5.83333 10.1971 5.77187 10.0877 5.66248C9.97829 5.55308 9.91683 5.40471 9.91683 5.25C9.91683 5.09529 9.97829 4.94692 10.0877 4.83752C10.1971 4.72812 10.3455 4.66667 10.5002 4.66667C10.6549 4.66667 10.8032 4.72812 10.9126 4.83752C11.022 4.94692 11.0835 5.09529 11.0835 5.25C11.0835 5.40471 11.022 5.55308 10.9126 5.66248C10.8032 5.77187 10.6549 5.83333 10.5002 5.83333ZM7.00016 5.83333H3.50016V2.91667H7.00016M11.5327 4.2175L11.5385 4.21167L9.3685 2.04167L8.75016 2.66L9.981 3.89083C9.43266 4.08333 9.04183 4.62583 9.04183 5.25C9.04183 5.44151 9.07955 5.63115 9.15284 5.80808C9.22613 5.98501 9.33355 6.14578 9.46897 6.2812C9.74246 6.55469 10.1134 6.70833 10.5002 6.70833C10.7102 6.70833 10.9027 6.66167 11.0835 6.58583V10.7917C11.0835 10.9464 11.022 11.0947 10.9126 11.2041C10.8032 11.3135 10.6549 11.375 10.5002 11.375C10.3455 11.375 10.1971 11.3135 10.0877 11.2041C9.97829 11.0947 9.91683 10.9464 9.91683 10.7917V8.16667C9.91683 7.85725 9.79391 7.5605 9.57512 7.34171C9.35633 7.12292 9.05958 7 8.75016 7H8.16683V2.91667C8.16683 2.60725 8.04391 2.3105 7.82512 2.09171C7.60633 1.87292 7.30958 1.75 7.00016 1.75H3.50016C2.85266 1.75 2.3335 2.26917 2.3335 2.91667V12.25H8.16683V7.875H9.04183V10.7917C9.04183 11.1784 9.19547 11.5494 9.46897 11.8229C9.74246 12.0964 10.1134 12.25 10.5002 12.25C10.6917 12.25 10.8813 12.2123 11.0582 12.139C11.2352 12.0657 11.3959 11.9583 11.5314 11.8229C11.6668 11.6874 11.7742 11.5267 11.8475 11.3497C11.9208 11.1728 11.9585 10.9832 11.9585 10.7917V5.25C11.9585 4.8475 11.7952 4.48 11.5327 4.2175Z" fill="white"/>
</svg>
