<svg width="42" height="40" viewBox="0 0 42 40" fill="none" xmlns="http://www.w3.org/2000/svg">
<path d="M2.75862 37.2412H0V38.6205H2.75862V37.2412Z" fill="black"/>
<path d="M9.65535 37.2412H6.89673V38.6205H9.65535V37.2412Z" fill="black"/>
<path d="M5.51725 0H4.13794V40H5.51725V0Z" fill="black"/>
<path d="M17.2412 28.2754C16.8609 28.2754 16.5515 28.5848 16.5515 28.965V35.8616H17.9308V28.965C17.9308 28.5848 17.6214 28.2754 17.2412 28.2754Z" fill="black"/>
<path d="M20.6894 37.2412H15.1721V38.6205H20.6894V37.2412Z" fill="black"/>
<path d="M34.4829 35.8623H22.0691V40.0002H34.4829V35.8623Z" fill="black"/>
<path d="M9.9408 32.4138L11.0345 33.5075L15.1724 29.3695V28.9655C15.1724 27.8247 16.1006 26.8965 17.2414 26.8965C17.3678 26.8965 17.4913 26.9085 17.6115 26.9303L21.0936 23.4482H18.9064L9.9408 32.4138Z" fill="black"/>
<path d="M30.345 2.75879H26.207V5.51741H30.345V2.75879Z" fill="black"/>
<path d="M28.9654 0H27.5861V1.37931H28.9654V0Z" fill="black"/>
<path d="M31.7242 7.58614C31.7242 7.20588 31.4148 6.89648 31.0345 6.89648H25.5173C25.137 6.89648 24.8276 7.20588 24.8276 7.58614V8.27579H31.7242V7.58614Z" fill="black"/>
<path d="M15.5761 16.5518H15.1721V17.9311H16.9554L15.5761 16.5518Z" fill="#2E7D32"/>
<path d="M16.9554 13.793H15.1721V15.1723H15.5761L16.9554 13.793Z" fill="#2E7D32"/>
<path d="M20.6896 5.51758H19.3103V8.2762H20.6896V5.51758Z" fill="black"/>
<path d="M30.345 23.4482H26.207V34.4827H30.345V23.4482Z" fill="black"/>
<path d="M39.0245 13.793H35.4579L34.0786 15.1723H37.6452L39.0245 13.793Z" fill="#2E7D32"/>
<path d="M35.4579 17.9311H39.0245L37.6452 16.5518H34.0786L35.4579 17.9311Z" fill="#2E7D32"/>
<path d="M41.3797 37.2412H35.8624V38.6205H41.3797V37.2412Z" fill="black"/>
<path d="M33.5076 13.793H29.9411L28.5618 15.1723H32.1283L33.5076 13.793Z" fill="#2E7D32"/>
<path d="M39.5962 15.1723H41.3795V13.793H40.9755L39.5962 15.1723Z" fill="#2E7D32"/>
<path d="M39.9997 9.77389V11.0346H38.6204V9.65527H37.2411V11.0346H35.8618V9.65527H34.4825V11.0346H33.1032V9.65527H31.7238V11.0346H30.3445V9.65527H28.9652V11.0346H27.5859V9.65527H26.2066V11.0346H24.8273V9.65527H23.448V11.0346H22.0687V9.65527H20.6894V11.0346H19.3101V9.65527H17.9307V11.0346H16.5514V9.77389C15.7488 10.0585 15.1721 10.8252 15.1721 11.7242V12.4139H41.379V11.7242C41.379 10.8252 40.8024 10.0585 39.9997 9.77389Z" fill="#2E7D32"/>
<path d="M40.9755 17.9311H41.3795V16.5518H39.5962L40.9755 17.9311Z" fill="#2E7D32"/>
<path d="M22.4728 13.793H18.9063L17.527 15.1723H21.0935L22.4728 13.793Z" fill="#2E7D32"/>
<path d="M18.9063 17.9311H22.4728L21.0935 16.5518H17.527L18.9063 17.9311Z" fill="#2E7D32"/>
<path d="M15.1721 19.9992C15.1721 20.8983 15.7488 21.6648 16.5514 21.9496V20.6889H17.9307V22.0682H19.3101V20.6889H20.6894V22.0682H22.0687V20.6889H23.448V22.0682H24.8273V20.6889H26.2066V22.0682H27.5859V20.6889H28.9652V22.0682H30.3445V20.6889H31.7238V22.0682H33.1032V20.6889H34.4825V22.0682H35.8618V20.6889H37.2411V22.0682H38.6204V20.6889H39.9997V21.9496C40.8024 21.6648 41.379 20.8983 41.379 19.9992V19.3096H15.1721V19.9992Z" fill="#2E7D32"/>
<path d="M24.4235 17.9311H27.9901L26.6107 16.5518H23.0442L24.4235 17.9311Z" fill="#2E7D32"/>
<path d="M29.9411 17.9311H33.5076L32.1283 16.5518H28.5618L29.9411 17.9311Z" fill="#2E7D32"/>
<path d="M27.9901 13.793H24.4235L23.0442 15.1723H26.6107L27.9901 13.793Z" fill="#2E7D32"/>
</svg>
