<svg width="58" height="40" viewBox="0 0 58 40" fill="none" xmlns="http://www.w3.org/2000/svg">
<path d="M44.7662 30.9023C43.0366 30.9023 41.6294 32.2944 41.6294 34.0055C41.6294 35.7165 43.0366 37.1086 44.7662 37.1086C46.4959 37.1086 47.903 35.7165 47.903 34.0055C47.903 32.2944 46.4959 30.9023 44.7662 30.9023Z" fill="black"/>
<path d="M14.8084 30.9023C13.0787 30.9023 11.6715 32.2944 11.6715 34.0055C11.6715 35.7165 13.0787 37.1086 14.8084 37.1086C16.538 37.1086 17.9452 35.7165 17.9452 34.0055C17.9452 32.2944 16.538 30.9023 14.8084 30.9023Z" fill="black"/>
<path d="M55.0215 18.8057L50.3822 17.3825C49.4181 17.0867 48.5852 16.5106 47.9735 15.7164L41.5619 7.39261C39.5252 4.74852 36.303 3.17 32.9427 3.17H15.8097V2.15318C15.8097 0.965909 14.8333 0 13.6333 0H6.82515C5.62498 0 4.64858 0.965909 4.64858 2.15318V3.19148C2.04653 3.42216 0 5.59011 0 8.22318V32.1272C0 33.4137 1.05807 34.4605 2.35852 34.4605H8.76853C9.00435 37.5539 11.6221 40 14.8084 40C17.9947 40 20.6125 37.5539 20.8483 34.4606H38.7263C38.9621 37.5539 41.5799 40 44.7662 40C47.9525 40 50.5703 37.5539 50.8061 34.4606H53.8124C56.0635 34.4606 57.8947 32.649 57.8947 30.422V22.663C57.8947 20.883 56.7401 19.3328 55.0215 18.8057ZM14.8084 39.0909C11.9741 39.0909 9.66831 36.8099 9.66831 34.006C9.66831 31.2022 11.9741 28.9211 14.8084 28.9211C17.6427 28.9211 19.9485 31.2022 19.9485 34.006C19.9485 36.8099 17.6427 39.0909 14.8084 39.0909ZM29.3278 26.6761C17.2846 27.9097 7.72906 24.006 0.918964 15.0694V8.22318C0.918964 5.93807 2.79813 4.07909 5.10806 4.07909H29.3279V26.6761H29.3278ZM44.7662 39.0909C41.9319 39.0909 39.6261 36.8099 39.6261 34.006C39.6261 31.2022 41.9319 28.9211 44.7662 28.9211C47.6005 28.9211 49.9063 31.2022 49.9063 34.006C49.9063 36.8099 47.6005 39.0909 44.7662 39.0909ZM56.9758 30.4219C56.9758 32.1476 55.5567 33.5514 53.8124 33.5514H50.8061C50.5703 30.4581 47.9525 28.0119 44.7662 28.0119C41.5799 28.0119 38.9621 30.4581 38.7263 33.5514H30.2468V4.07909H32.9427C36.018 4.07909 38.9668 5.52375 40.831 7.94364L47.2426 16.2674C47.9707 17.2128 48.9623 17.8986 50.1101 18.2508L54.7494 19.674C55.9418 20.0398 56.7818 21.0418 56.9448 22.2376C56.4678 22.2751 55.694 22.3576 54.9112 22.5335C53.0665 22.9481 52.1312 23.668 52.1312 24.6732C52.1312 25.6342 53.0384 26.5175 54.8275 27.2988C55.6783 27.6703 56.5194 27.929 56.9758 28.0578V30.4219Z" fill="black"/>
<path d="M16.7201 13.8961C16.7201 13.4154 16.3248 13.0244 15.8388 13.0244C15.353 13.0244 14.9576 13.4154 14.9576 13.8961C14.9576 14.3768 15.3529 14.7678 15.8388 14.7678C16.3247 14.7678 16.7201 14.3768 16.7201 13.8961Z" fill="#2E7D32"/>
<path d="M14.1005 14.3506H12.1185C12.3274 16.0331 13.6787 17.3699 15.3795 17.5766V15.6158C14.7561 15.4526 14.2655 14.9672 14.1005 14.3506Z" fill="#2E7D32"/>
<path d="M15.3795 12.1756V10.2148C13.6788 10.4214 12.3275 11.7584 12.1185 13.4408H14.1005C14.2655 12.8242 14.7561 12.3388 15.3795 12.1756Z" fill="#2E7D32"/>
<path d="M16.2983 15.6159V17.5766C17.9991 17.37 19.3504 16.0331 19.5594 14.3506H17.5774C17.4124 14.9674 16.9217 15.4527 16.2983 15.6159Z" fill="#2E7D32"/>
<path d="M16.2983 10.2148V12.1755C16.9217 12.3387 17.4125 12.824 17.5774 13.4408H19.5594C19.3504 11.7584 17.999 10.4215 16.2983 10.2148Z" fill="#2E7D32"/>
<path d="M15.8388 5.75879C11.3034 5.75879 7.61353 9.40902 7.61353 13.8957C7.61353 18.3824 11.3034 22.0327 15.8388 22.0327C20.3744 22.0327 24.0642 18.3824 24.0642 13.8957C24.0642 9.40902 20.3744 5.75879 15.8388 5.75879ZM15.8388 18.5142C13.2646 18.5142 11.1703 16.4424 11.1703 13.8957C11.1703 11.349 13.2645 9.27731 15.8388 9.27731C18.4132 9.27731 20.5075 11.3491 20.5075 13.8957C20.5075 16.4423 18.4131 18.5142 15.8388 18.5142Z" fill="#2E7D32"/>
<path d="M43.5733 15.613L36.5717 6.85406C36.16 6.33917 35.5434 6.04395 34.8798 6.04395H33.8863C32.6969 6.04395 31.7295 7.0011 31.7295 8.17758V17.158C31.7295 18.3227 32.6873 19.2701 33.8645 19.2701H40.9868C41.1452 20.8516 42.121 22.0334 43.3387 22.0334C44.6375 22.0334 46.2062 20.598 46.2062 18.8155C46.206 17.1393 44.8189 15.7703 43.5733 15.613ZM39.2018 18.361V11.6099L42.5355 15.7802C41.7113 16.1696 41.1084 17.1474 40.9868 18.361H39.2018Z" fill="black"/>
<path d="M36.1729 21.5293H32.1887C31.935 21.5293 31.7292 21.7328 31.7292 21.9838C31.7292 22.2349 31.935 22.4384 32.1887 22.4384H36.1729C36.4267 22.4384 36.6324 22.2349 36.6324 21.9838C36.6324 21.7328 36.4267 21.5293 36.1729 21.5293Z" fill="black"/>
</svg>
