<svg width="20" height="15" viewBox="0 0 20 15" fill="none" xmlns="http://www.w3.org/2000/svg">
<path d="M13.8 10.8C13.6409 10.8 13.4883 10.8632 13.3757 10.9757C13.2632 11.0883 13.2 11.2409 13.2 11.4C13.2 11.5591 13.2632 11.7117 13.3757 11.8243C13.4883 11.9368 13.6409 12 13.8 12H16.2C16.3591 12 16.5117 11.9368 16.6243 11.8243C16.7368 11.7117 16.8 11.5591 16.8 11.4C16.8 11.2409 16.7368 11.0883 16.6243 10.9757C16.5117 10.8632 16.3591 10.8 16.2 10.8H13.8ZM0 3.3C0 2.42479 0.347678 1.58542 0.966548 0.966547C1.58542 0.347677 2.42479 0 3.3 0H15.9C16.7752 0 17.6146 0.347677 18.2335 0.966547C18.8523 1.58542 19.2 2.42479 19.2 3.3V11.1C19.2 11.9752 18.8523 12.8146 18.2335 13.4335C17.6146 14.0523 16.7752 14.4 15.9 14.4H3.3C2.42479 14.4 1.58542 14.0523 0.966548 13.4335C0.347678 12.8146 0 11.9752 0 11.1V3.3ZM3.3 1.2C2.74305 1.2 2.2089 1.42125 1.81508 1.81508C1.42125 2.2089 1.2 2.74305 1.2 3.3V4.8H18V3.3C18 2.74305 17.7788 2.2089 17.3849 1.81508C16.9911 1.42125 16.457 1.2 15.9 1.2H3.3ZM18 6H1.2V11.1C1.2 12.2592 2.1408 13.2 3.3 13.2H15.9C16.457 13.2 16.9911 12.9788 17.3849 12.5849C17.7788 12.1911 18 11.657 18 11.1V6Z" fill="#8E8E93"/>
</svg>
