<svg width="14" height="14" viewBox="0 0 14 14" fill="none" xmlns="http://www.w3.org/2000/svg">
<path d="M3.63348 9.64766C3.68802 9.66585 3.73845 9.6946 3.78187 9.73229C3.82529 9.76998 3.86085 9.81585 3.88653 9.86729C3.91221 9.91873 3.9275 9.97473 3.93152 10.0321C3.93555 10.0894 3.92823 10.147 3.90998 10.2015L3.47248 11.514C3.456 11.5705 3.4283 11.6231 3.39102 11.6687C3.35374 11.7142 3.30766 11.7518 3.25553 11.7791C3.2034 11.8064 3.1463 11.8229 3.08764 11.8276C3.02898 11.8324 2.96996 11.8252 2.91413 11.8066C2.8583 11.788 2.8068 11.7583 2.76271 11.7193C2.71862 11.6803 2.68284 11.6329 2.65753 11.5797C2.63221 11.5266 2.61788 11.4689 2.61538 11.4101C2.61288 11.3513 2.62227 11.2926 2.64298 11.2375L3.08048 9.92504C3.11704 9.81493 3.19584 9.72385 3.29954 9.67183C3.40325 9.61982 3.52337 9.61112 3.63348 9.64766ZM6.25848 9.64766C6.31302 9.66585 6.36345 9.6946 6.40687 9.73229C6.45029 9.76998 6.48585 9.81585 6.51153 9.86729C6.53721 9.91873 6.5525 9.97473 6.55652 10.0321C6.56055 10.0894 6.55323 10.147 6.53498 10.2015L5.65998 12.8265C5.6435 12.883 5.6158 12.9356 5.57852 12.9812C5.54124 13.0267 5.49516 13.0643 5.44303 13.0916C5.3909 13.1189 5.3338 13.1354 5.27514 13.1401C5.21648 13.1449 5.15746 13.1377 5.10163 13.1191C5.0458 13.1005 4.9943 13.0708 4.95021 13.0318C4.90612 12.9928 4.87034 12.9454 4.84503 12.8922C4.81971 12.8391 4.80538 12.7814 4.80288 12.7226C4.80038 12.6638 4.80977 12.6051 4.83048 12.55L5.70548 9.92504C5.74204 9.81493 5.82084 9.72385 5.92454 9.67183C6.02825 9.61982 6.14837 9.61112 6.25848 9.64766ZM8.88348 9.64766C8.93802 9.66585 8.98845 9.6946 9.03187 9.73229C9.07529 9.76998 9.11085 9.81585 9.13653 9.86729C9.16221 9.91873 9.1775 9.97473 9.18152 10.0321C9.18555 10.0894 9.17823 10.147 9.15998 10.2015L8.72248 11.514C8.706 11.5705 8.6783 11.6231 8.64102 11.6687C8.60374 11.7142 8.55766 11.7518 8.50553 11.7791C8.4534 11.8064 8.3963 11.8229 8.33764 11.8276C8.27898 11.8324 8.21996 11.8252 8.16413 11.8066C8.1083 11.788 8.0568 11.7583 8.01271 11.7193C7.96862 11.6803 7.93284 11.6329 7.90753 11.5797C7.88221 11.5266 7.86788 11.4689 7.86538 11.4101C7.86288 11.3513 7.87227 11.2926 7.89298 11.2375L8.33048 9.92504C8.36704 9.81493 8.44584 9.72385 8.54954 9.67183C8.65325 9.61982 8.77337 9.61112 8.88348 9.64766ZM11.5085 9.64766C11.563 9.66585 11.6134 9.6946 11.6569 9.73229C11.7003 9.76998 11.7359 9.81585 11.7615 9.86729C11.7872 9.91873 11.8025 9.97473 11.8065 10.0321C11.8105 10.0894 11.8032 10.147 11.785 10.2015L10.91 12.8265C10.8935 12.883 10.8658 12.9356 10.8285 12.9812C10.7912 13.0267 10.7452 13.0643 10.693 13.0916C10.6409 13.1189 10.5838 13.1354 10.5251 13.1401C10.4665 13.1449 10.4075 13.1377 10.3516 13.1191C10.2958 13.1005 10.2443 13.0708 10.2002 13.0318C10.1561 12.9928 10.1203 12.9454 10.095 12.8922C10.0697 12.8391 10.0554 12.7814 10.0529 12.7226C10.0504 12.6638 10.0598 12.6051 10.0805 12.55L10.9555 9.92504C10.992 9.81493 11.0708 9.72385 11.1745 9.67183C11.2782 9.61982 11.3984 9.61112 11.5085 9.64766ZM11.7246 3.52441C11.5429 2.60843 11.0729 1.7746 10.3834 1.14483C9.69389 0.515066 8.82098 0.122399 7.89232 0.0242444C6.96366 -0.0739106 6.02795 0.127594 5.22201 0.599295C4.41607 1.071 3.78217 1.78815 3.41298 2.64591C2.99897 2.59822 2.57957 2.63553 2.18047 2.75556C1.78138 2.87558 1.41098 3.07581 1.09195 3.34397C0.772931 3.61212 0.511997 3.94258 0.325126 4.31509C0.138256 4.6876 0.0293828 5.09433 0.00517222 5.51038C-0.0190383 5.92643 0.0419234 6.34305 0.184325 6.73472C0.326726 7.12639 0.547571 7.48488 0.833338 7.78823C1.1191 8.09158 1.46378 8.33342 1.84626 8.49893C2.22874 8.66444 2.64098 8.75014 3.05773 8.75079H11.3702C12.0362 8.75155 12.6776 8.49915 13.1644 8.04472C13.6512 7.5903 13.9472 6.96781 13.9922 6.30337C14.0373 5.63892 13.8281 4.98219 13.4071 4.46621C12.986 3.95022 12.3846 3.61356 11.7246 3.52441Z" fill="white"/>
</svg>
