<svg width="27" height="32" viewBox="0 0 27 32" fill="none" xmlns="http://www.w3.org/2000/svg">
<mask id="path-1-inside-1_116_25293" fill="white">
<path fill-rule="evenodd" clip-rule="evenodd" d="M12.3622 0.179338L13.3195 2.46987C13.363 2.57273 13.454 2.63998 13.5648 2.64789L16.0399 2.84965C16.1599 2.85888 16.2575 2.93668 16.2944 3.05009C16.3313 3.16481 16.2983 3.28349 16.206 3.36129L14.323 4.9793C14.2386 5.05183 14.203 5.15996 14.2294 5.26809L14.8017 7.68387C14.8294 7.80123 14.7872 7.91727 14.6896 7.98716C14.592 8.05837 14.468 8.06233 14.3665 8.00035L12.2461 6.70938C12.1512 6.65136 12.0378 6.65136 11.9428 6.70938L9.82242 8.00035C9.71956 8.06233 9.59693 8.05837 9.49935 7.98716C9.40308 7.91595 9.35957 7.80123 9.38726 7.68387L9.95956 5.26809C9.98593 5.15864 9.95033 5.05183 9.86593 4.9793L7.98157 3.36129C7.89058 3.28349 7.85762 3.16349 7.89454 3.05009C7.93147 2.93536 8.02905 2.85888 8.14904 2.84965L10.6242 2.64789C10.7349 2.63866 10.8272 2.57273 10.8694 2.46987L11.8268 0.179338C11.8729 0.0685723 11.9758 0 12.0958 0C12.2145 0 12.316 0.0685689 12.3622 0.179338ZM15.3001 15.3467V14.1322C15.3001 12.3415 14.3335 11.1982 13.0953 10.7011C12.6074 10.5046 12.076 10.407 11.5419 10.407V10.4057C11.0105 10.4057 10.4791 10.5046 9.98854 10.7011C8.7503 11.1982 7.78506 12.3415 7.78506 14.1322V15.3467C7.78506 16.8368 8.45364 17.8786 9.39251 18.4733L9.41097 18.4865L9.41493 18.4891C9.42548 18.4957 9.43734 18.5036 9.44921 18.5102L9.46899 18.5221C9.47954 18.5287 9.49009 18.5352 9.50196 18.5405C9.50987 18.5458 9.5191 18.5511 9.52701 18.555L9.55339 18.5695L9.58503 18.5867L9.60481 18.5972C9.618 18.6038 9.62987 18.6104 9.64306 18.617L9.65888 18.6249C9.67207 18.6328 9.68657 18.6394 9.70108 18.646L9.71426 18.6526C9.72877 18.6605 9.74459 18.6671 9.7591 18.675L9.76701 18.679C9.78415 18.6869 9.79998 18.6948 9.8158 18.7014L9.82239 18.704C9.84085 18.712 9.858 18.7199 9.87646 18.7278H9.87778C9.89756 18.7357 9.91602 18.7436 9.93448 18.7515L9.93712 18.7528C9.95558 18.7607 9.97536 18.7687 9.99382 18.7766C10.4817 18.973 11.0131 19.0706 11.5472 19.0706C12.0813 19.0706 12.6127 18.973 13.1006 18.7766C13.1191 18.7687 13.1389 18.7607 13.1573 18.7528L13.1586 18.7515C13.1771 18.7436 13.1969 18.7357 13.2153 18.7278H13.2167C13.2351 18.7199 13.2523 18.712 13.2707 18.704L13.2773 18.7014C13.2945 18.6935 13.3103 18.6869 13.3261 18.679L13.334 18.675C13.3485 18.6671 13.363 18.6605 13.3789 18.6526L13.3934 18.646C13.4066 18.6394 13.4211 18.6315 13.4342 18.6249L13.4514 18.617C13.4633 18.6104 13.4764 18.6038 13.4896 18.5972L13.5094 18.5867L13.5397 18.5695L13.5925 18.5405C13.603 18.5339 13.6136 18.5273 13.6241 18.5221L13.6439 18.5102C13.6545 18.5036 13.6663 18.4957 13.6782 18.4891L13.6821 18.4865L13.7006 18.4733C14.6303 17.8786 15.3001 16.8368 15.3001 15.3467ZM11.5763 29.7269H3.38463V26.2853C3.38463 22.3255 5.58284 19.82 8.36526 18.7664C8.75162 19.1092 9.19601 19.3769 9.67338 19.5681C10.2655 19.8068 10.905 19.9255 11.5433 19.9255C12.1802 19.9255 12.8211 19.8068 13.4131 19.5681C13.8892 19.3769 14.3336 19.1092 14.7212 18.7664C16.8562 19.5747 18.6483 21.2402 19.3643 23.7615C18.9489 23.9567 18.4439 24.0899 17.8333 24.1716C17.7977 24.0543 17.7344 23.9488 17.65 23.8644C17.5208 23.7351 17.3441 23.656 17.1476 23.6547H17.1278L15.6087 23.6837C15.4096 23.6877 15.2303 23.7694 15.101 23.9C15.0377 23.9633 14.9863 24.0384 14.9507 24.1215H12.0417C12.0299 24.1202 12.0167 24.1202 12.0035 24.1202C11.7674 24.1202 11.5776 24.3114 11.5776 24.5461L11.5763 29.7269ZM12.4295 24.9704V30.369H14.9072L14.8914 24.9704H12.4295ZM17.0131 24.5062L15.7393 24.53L15.7591 30.8346L17.0316 30.8108L17.0131 24.5062ZM3.01407 3.47208L3.65625 5.01096C3.68526 5.08085 3.74591 5.12437 3.82108 5.13096L5.48392 5.26678C5.56436 5.27337 5.63029 5.3248 5.65535 5.40128C5.6804 5.47777 5.65799 5.5582 5.59601 5.61095L4.33141 6.69886C4.2747 6.74765 4.25097 6.82018 4.26811 6.89271L4.65315 8.51599C4.67161 8.59511 4.6426 8.67291 4.57799 8.72038C4.51205 8.76785 4.42898 8.77181 4.36041 8.72961L2.93492 7.86193C2.8703 7.82237 2.79514 7.82237 2.73052 7.86193L1.30503 8.72961C1.23646 8.77181 1.15339 8.76785 1.08745 8.72038C1.02152 8.67291 0.993829 8.59511 1.01229 8.51599L1.39733 6.89271C1.41447 6.82018 1.39074 6.74765 1.33403 6.69886L0.0681154 5.61095C0.00745598 5.5582 -0.0149591 5.47777 0.0100925 5.40128C0.0351469 5.3248 0.0997601 5.27337 0.180202 5.26678L1.84304 5.13096C1.91821 5.12436 1.97887 5.08085 2.00788 5.01096L2.65005 3.47208C2.6817 3.39691 2.75027 3.35208 2.83203 3.35208C2.91378 3.35208 2.98242 3.39823 3.01407 3.47208ZM21.5346 3.47208L22.1768 5.01096C22.2058 5.08085 22.2665 5.12437 22.3416 5.13096L24.0045 5.26678C24.0849 5.27337 24.1508 5.3248 24.1759 5.40128C24.201 5.47777 24.1785 5.5582 24.1166 5.61095L22.852 6.69886C22.7953 6.74765 22.7715 6.82018 22.7887 6.89271L23.1737 8.51599C23.1922 8.59511 23.1632 8.67291 23.0985 8.72038C23.0326 8.76785 22.9495 8.77181 22.881 8.72961L21.4555 7.86193C21.3909 7.82237 21.3157 7.82237 21.2511 7.86193L19.8256 8.72961C19.757 8.77181 19.6739 8.76785 19.608 8.72038C19.5421 8.67291 19.5144 8.59511 19.5328 8.51599L19.9179 6.89271C19.935 6.82018 19.9113 6.74765 19.8546 6.69886L18.5887 5.61095C18.528 5.5582 18.5056 5.47777 18.5306 5.40128C18.5557 5.3248 18.6203 5.27337 18.7008 5.26678L20.3636 5.13096C20.4388 5.12436 20.4994 5.08085 20.5284 5.01096L21.1706 3.47208C21.2022 3.39691 21.2708 3.35208 21.3526 3.35208C21.433 3.35208 21.503 3.39823 21.5346 3.47208ZM25.9218 25.6837C27.3143 25.6837 27.3143 23.5778 25.9218 23.5791L23.4018 23.5817C23.7486 22.5532 23.8264 21.5114 23.7104 19.9383C23.6102 18.5774 21.5689 18.4495 21.5359 19.9383C21.47 23.0173 20.9306 24.4969 17.671 24.7619L17.6895 30.8778C19.4631 31.044 19.8178 32 21.4001 32H24.7152C26.1077 32 26.1077 29.8954 24.7152 29.8954L25.4392 29.8941C26.8317 29.8941 26.8317 27.7895 25.4392 27.7895C26.8317 27.7895 26.8317 25.6836 25.4392 25.6849L25.9218 25.6837Z"/>
</mask>
<path fill-rule="evenodd" clip-rule="evenodd" d="M12.3622 0.179338L13.3195 2.46987C13.363 2.57273 13.454 2.63998 13.5648 2.64789L16.0399 2.84965C16.1599 2.85888 16.2575 2.93668 16.2944 3.05009C16.3313 3.16481 16.2983 3.28349 16.206 3.36129L14.323 4.9793C14.2386 5.05183 14.203 5.15996 14.2294 5.26809L14.8017 7.68387C14.8294 7.80123 14.7872 7.91727 14.6896 7.98716C14.592 8.05837 14.468 8.06233 14.3665 8.00035L12.2461 6.70938C12.1512 6.65136 12.0378 6.65136 11.9428 6.70938L9.82242 8.00035C9.71956 8.06233 9.59693 8.05837 9.49935 7.98716C9.40308 7.91595 9.35957 7.80123 9.38726 7.68387L9.95956 5.26809C9.98593 5.15864 9.95033 5.05183 9.86593 4.9793L7.98157 3.36129C7.89058 3.28349 7.85762 3.16349 7.89454 3.05009C7.93147 2.93536 8.02905 2.85888 8.14904 2.84965L10.6242 2.64789C10.7349 2.63866 10.8272 2.57273 10.8694 2.46987L11.8268 0.179338C11.8729 0.0685723 11.9758 0 12.0958 0C12.2145 0 12.316 0.0685689 12.3622 0.179338ZM15.3001 15.3467V14.1322C15.3001 12.3415 14.3335 11.1982 13.0953 10.7011C12.6074 10.5046 12.076 10.407 11.5419 10.407V10.4057C11.0105 10.4057 10.4791 10.5046 9.98854 10.7011C8.7503 11.1982 7.78506 12.3415 7.78506 14.1322V15.3467C7.78506 16.8368 8.45364 17.8786 9.39251 18.4733L9.41097 18.4865L9.41493 18.4891C9.42548 18.4957 9.43734 18.5036 9.44921 18.5102L9.46899 18.5221C9.47954 18.5287 9.49009 18.5352 9.50196 18.5405C9.50987 18.5458 9.5191 18.5511 9.52701 18.555L9.55339 18.5695L9.58503 18.5867L9.60481 18.5972C9.618 18.6038 9.62987 18.6104 9.64306 18.617L9.65888 18.6249C9.67207 18.6328 9.68657 18.6394 9.70108 18.646L9.71426 18.6526C9.72877 18.6605 9.74459 18.6671 9.7591 18.675L9.76701 18.679C9.78415 18.6869 9.79998 18.6948 9.8158 18.7014L9.82239 18.704C9.84085 18.712 9.858 18.7199 9.87646 18.7278H9.87778C9.89756 18.7357 9.91602 18.7436 9.93448 18.7515L9.93712 18.7528C9.95558 18.7607 9.97536 18.7687 9.99382 18.7766C10.4817 18.973 11.0131 19.0706 11.5472 19.0706C12.0813 19.0706 12.6127 18.973 13.1006 18.7766C13.1191 18.7687 13.1389 18.7607 13.1573 18.7528L13.1586 18.7515C13.1771 18.7436 13.1969 18.7357 13.2153 18.7278H13.2167C13.2351 18.7199 13.2523 18.712 13.2707 18.704L13.2773 18.7014C13.2945 18.6935 13.3103 18.6869 13.3261 18.679L13.334 18.675C13.3485 18.6671 13.363 18.6605 13.3789 18.6526L13.3934 18.646C13.4066 18.6394 13.4211 18.6315 13.4342 18.6249L13.4514 18.617C13.4633 18.6104 13.4764 18.6038 13.4896 18.5972L13.5094 18.5867L13.5397 18.5695L13.5925 18.5405C13.603 18.5339 13.6136 18.5273 13.6241 18.5221L13.6439 18.5102C13.6545 18.5036 13.6663 18.4957 13.6782 18.4891L13.6821 18.4865L13.7006 18.4733C14.6303 17.8786 15.3001 16.8368 15.3001 15.3467ZM11.5763 29.7269H3.38463V26.2853C3.38463 22.3255 5.58284 19.82 8.36526 18.7664C8.75162 19.1092 9.19601 19.3769 9.67338 19.5681C10.2655 19.8068 10.905 19.9255 11.5433 19.9255C12.1802 19.9255 12.8211 19.8068 13.4131 19.5681C13.8892 19.3769 14.3336 19.1092 14.7212 18.7664C16.8562 19.5747 18.6483 21.2402 19.3643 23.7615C18.9489 23.9567 18.4439 24.0899 17.8333 24.1716C17.7977 24.0543 17.7344 23.9488 17.65 23.8644C17.5208 23.7351 17.3441 23.656 17.1476 23.6547H17.1278L15.6087 23.6837C15.4096 23.6877 15.2303 23.7694 15.101 23.9C15.0377 23.9633 14.9863 24.0384 14.9507 24.1215H12.0417C12.0299 24.1202 12.0167 24.1202 12.0035 24.1202C11.7674 24.1202 11.5776 24.3114 11.5776 24.5461L11.5763 29.7269ZM12.4295 24.9704V30.369H14.9072L14.8914 24.9704H12.4295ZM17.0131 24.5062L15.7393 24.53L15.7591 30.8346L17.0316 30.8108L17.0131 24.5062ZM3.01407 3.47208L3.65625 5.01096C3.68526 5.08085 3.74591 5.12437 3.82108 5.13096L5.48392 5.26678C5.56436 5.27337 5.63029 5.3248 5.65535 5.40128C5.6804 5.47777 5.65799 5.5582 5.59601 5.61095L4.33141 6.69886C4.2747 6.74765 4.25097 6.82018 4.26811 6.89271L4.65315 8.51599C4.67161 8.59511 4.6426 8.67291 4.57799 8.72038C4.51205 8.76785 4.42898 8.77181 4.36041 8.72961L2.93492 7.86193C2.8703 7.82237 2.79514 7.82237 2.73052 7.86193L1.30503 8.72961C1.23646 8.77181 1.15339 8.76785 1.08745 8.72038C1.02152 8.67291 0.993829 8.59511 1.01229 8.51599L1.39733 6.89271C1.41447 6.82018 1.39074 6.74765 1.33403 6.69886L0.0681154 5.61095C0.00745598 5.5582 -0.0149591 5.47777 0.0100925 5.40128C0.0351469 5.3248 0.0997601 5.27337 0.180202 5.26678L1.84304 5.13096C1.91821 5.12436 1.97887 5.08085 2.00788 5.01096L2.65005 3.47208C2.6817 3.39691 2.75027 3.35208 2.83203 3.35208C2.91378 3.35208 2.98242 3.39823 3.01407 3.47208ZM21.5346 3.47208L22.1768 5.01096C22.2058 5.08085 22.2665 5.12437 22.3416 5.13096L24.0045 5.26678C24.0849 5.27337 24.1508 5.3248 24.1759 5.40128C24.201 5.47777 24.1785 5.5582 24.1166 5.61095L22.852 6.69886C22.7953 6.74765 22.7715 6.82018 22.7887 6.89271L23.1737 8.51599C23.1922 8.59511 23.1632 8.67291 23.0985 8.72038C23.0326 8.76785 22.9495 8.77181 22.881 8.72961L21.4555 7.86193C21.3909 7.82237 21.3157 7.82237 21.2511 7.86193L19.8256 8.72961C19.757 8.77181 19.6739 8.76785 19.608 8.72038C19.5421 8.67291 19.5144 8.59511 19.5328 8.51599L19.9179 6.89271C19.935 6.82018 19.9113 6.74765 19.8546 6.69886L18.5887 5.61095C18.528 5.5582 18.5056 5.47777 18.5306 5.40128C18.5557 5.3248 18.6203 5.27337 18.7008 5.26678L20.3636 5.13096C20.4388 5.12436 20.4994 5.08085 20.5284 5.01096L21.1706 3.47208C21.2022 3.39691 21.2708 3.35208 21.3526 3.35208C21.433 3.35208 21.503 3.39823 21.5346 3.47208ZM25.9218 25.6837C27.3143 25.6837 27.3143 23.5778 25.9218 23.5791L23.4018 23.5817C23.7486 22.5532 23.8264 21.5114 23.7104 19.9383C23.6102 18.5774 21.5689 18.4495 21.5359 19.9383C21.47 23.0173 20.9306 24.4969 17.671 24.7619L17.6895 30.8778C19.4631 31.044 19.8178 32 21.4001 32H24.7152C26.1077 32 26.1077 29.8954 24.7152 29.8954L25.4392 29.8941C26.8317 29.8941 26.8317 27.7895 25.4392 27.7895C26.8317 27.7895 26.8317 25.6836 25.4392 25.6849L25.9218 25.6837Z" fill="#2E7D32" stroke="black" mask="url(#path-1-inside-1_116_25293)"/>
</svg>
