<svg width="14" height="14" viewBox="0 0 14 14" fill="none" xmlns="http://www.w3.org/2000/svg">
<path d="M1.84223 8.12582C1.63811 7.78576 1.53027 7.3966 1.53027 6.99998C1.53027 6.60336 1.63811 6.21421 1.84223 5.87415C1.90496 5.76945 1.98891 5.67904 2.08867 5.60871C2.18842 5.53839 2.30179 5.48971 2.42148 5.46582L3.40907 5.26807C3.46796 5.2564 3.52108 5.2249 3.55957 5.17882L4.7659 3.7304C5.4554 2.90207 5.80073 2.48848 6.10815 2.5999C6.41557 2.71132 6.41673 3.25032 6.41673 4.32832V9.67282C6.41673 10.7502 6.41673 11.2886 6.10873 11.4006C5.80132 11.5115 5.45598 11.0979 4.76648 10.2701L3.5584 8.82115C3.52006 8.77518 3.46717 8.74369 3.40848 8.7319L2.4209 8.53415C2.30121 8.51025 2.18784 8.46158 2.08808 8.39125C1.98832 8.32093 1.90496 8.23051 1.84223 8.12582Z" stroke="white"/>
<path d="M9.0625 4.9372C9.60677 5.48145 9.91384 6.21877 9.91679 6.98846C9.91974 7.75815 9.61833 8.4978 9.07825 9.0462M11.4664 3.69995C12.3372 4.57067 12.8286 5.7503 12.8334 6.98175C12.8382 8.21319 12.3561 9.39662 11.4921 10.2741" stroke="white" stroke-linecap="round"/>
</svg>
