<svg xmlns="http://www.w3.org/2000/svg" width="32" height="32" xmlns:v="https://vecta.io/nano"><path d="M24.86 28.29c-3.38 2.48-10.47 3.14-14.41 1.36-4.1-1.86-8.23-6.95-9.01-11.11C-.4 8.74 9.32-.48 19.48 1.43c12.22 2.29 15.64 19.35 5.38 26.86zm-14.78-7.18C11.78 23.25 13.5 25 13.9 25c.89 0 4.65-4.07 9.02-9.77 2.08-2.7 3.05-4.88 2.64-5.93-.51-1.34-1.65-.66-5.98 3.62-3.28 3.24-5.6 4.85-6.02 4.18-.7-1.13-6.56-1.57-6.56-.49 0 .33 1.39 2.35 3.08 4.5z" fill="#52ac57"/><path d="M0 16V0h16 16v16 16H16 0V16zm24.86 12.29c10.26-7.51 6.84-24.57-5.38-26.86C9.32-.48-.4 8.74 1.44 18.54c.78 4.16 4.91 9.25 9.01 11.11 3.94 1.78 11.03 1.12 14.41-1.36zm-14.78-7.18C8.39 18.96 7 16.94 7 16.61c0-1.08 5.86-.64 6.56.49.42.67 2.74-.94 6.02-4.18 4.33-4.28 5.47-4.96 5.98-3.62.41 1.05-.56 3.23-2.64 5.93-4.37 5.7-8.13 9.77-9.02 9.77-.4 0-2.12-1.75-3.82-3.89z" fill="#f3fdf3"/></svg>