<svg width="20" height="12" viewBox="0 0 20 12" fill="none" xmlns="http://www.w3.org/2000/svg">
<path fill-rule="evenodd" clip-rule="evenodd" d="M9.59996 0C4.30654 0 0 4.42678 0 9.86804C0 10.1332 0.215039 10.348 0.479998 10.348C0.744957 10.348 0.959996 10.1332 0.959996 9.86804C0.959996 4.95598 4.83574 0.959996 9.59996 0.959996C14.3642 0.959996 18.2399 4.95598 18.2399 9.86804C18.2399 10.1332 18.455 10.348 18.7199 10.348C18.9849 10.348 19.1999 10.1332 19.1999 9.86804C19.1999 4.42678 14.8934 0 9.59996 0Z" fill="white"/>
<path fill-rule="evenodd" clip-rule="evenodd" d="M10.6184 10.6184C10.3465 10.8903 9.98484 11.0401 9.60013 11.0401C9.21565 11.0401 8.85397 10.8903 8.58205 10.6184C8.02045 10.0568 8.02045 9.14337 8.58205 8.58178C9.08677 8.07706 11.235 7.04746 12.8303 6.36995C12.1532 7.96474 11.1239 10.113 10.6184 10.6184ZM13.5313 5.14331C13.3573 5.14331 13.1435 5.19419 12.896 5.30219C12.896 5.30219 8.84029 6.96562 7.90309 7.90306C6.9659 8.84026 6.9659 10.3599 7.90309 11.2971C8.37181 11.7656 8.98597 12.0001 9.60013 12.0001C10.2145 12.0001 10.8287 11.7656 11.2974 11.2971C12.2346 10.3599 13.8983 6.30419 13.8983 6.30419C14.2105 5.57963 14.0403 5.14331 13.5313 5.14331Z" fill="white"/>
</svg>
