<svg width="17" height="14" viewBox="0 0 17 14" fill="none" xmlns="http://www.w3.org/2000/svg">
<path d="M15.9522 6.83423H15.4262L15.6099 6.56533C15.661 6.49057 15.6414 6.38825 15.5666 6.3371C15.4918 6.28594 15.3889 6.30562 15.3384 6.38038L15.0288 6.83487H13.4574L14.0713 5.9344C14.1224 5.85964 14.1027 5.75732 14.028 5.70617C13.9532 5.65501 13.8502 5.67469 13.7997 5.74945L13.0593 6.83553H11.2648L12.4053 5.16315C12.4565 5.08838 12.4368 4.98607 12.3621 4.93491C12.2866 4.88375 12.1843 4.90343 12.1338 4.9782L10.8667 6.83612H10.0653V5.84186L9.20485 5.34474L9.60557 4.65087L11.8478 4.48297C11.9383 4.47641 12.0065 4.39706 11.9993 4.30655C11.9927 4.21604 11.9127 4.14784 11.8229 4.15505L9.80428 4.30655L10.7015 2.75221L12.0118 2.65384C12.1023 2.64728 12.1706 2.56792 12.1633 2.47741C12.1568 2.38691 12.0768 2.31805 11.9869 2.32592L10.9002 2.40724L11.6859 1.04637L12.2342 1.00505C12.3247 0.998496 12.3929 0.919139 12.3857 0.82863C12.3791 0.738125 12.2991 0.669261 12.2092 0.677132L11.8846 0.701398L12.1476 0.246253C12.1928 0.167552 12.1659 0.0672096 12.0872 0.021962C12.0085 -0.0232906 11.9075 0.00359949 11.863 0.0823001L11.6 0.537446L11.4583 0.24363C11.419 0.16165 11.3206 0.127546 11.2386 0.166897C11.1566 0.206248 11.1225 0.304623 11.1619 0.386604L11.4006 0.882414L10.6149 2.24328L10.142 1.26083C10.1027 1.17885 10.0043 1.14475 9.92233 1.1841C9.84035 1.22345 9.80625 1.32182 9.8456 1.40381L10.4162 2.58825L9.51897 4.14259L8.6408 2.31808C8.60145 2.2361 8.50308 2.20199 8.42109 2.24134C8.33912 2.28069 8.30501 2.37907 8.34436 2.46105L9.32025 4.48754L8.91953 5.18141L8.05842 4.68429L7.19731 5.18141L6.79659 4.48754L7.77248 2.46105C7.81183 2.37907 7.77773 2.2807 7.69575 2.24134C7.61377 2.20199 7.51539 2.23675 7.47604 2.31808L6.59787 4.14259L5.70067 2.58825L6.27124 1.40381C6.3106 1.32183 6.27649 1.22345 6.19451 1.1841C6.11253 1.14475 6.01416 1.17885 5.9748 1.26083L5.50195 2.24328L4.71625 0.882414L4.95498 0.386604C4.99433 0.304624 4.96023 0.206252 4.87825 0.166897C4.79692 0.127546 4.69789 0.16165 4.65854 0.24363L4.51688 0.537446L4.25389 0.0823001C4.20863 0.00359949 4.10829 -0.0232906 4.0296 0.021962C3.9509 0.0672146 3.92401 0.167559 3.96926 0.246253L4.23225 0.701398L3.90761 0.677132C3.81645 0.669262 3.73841 0.738125 3.73119 0.82863C3.72463 0.919136 3.79218 0.997835 3.88268 1.00505L4.43096 1.04637L5.21666 2.40724L4.12993 2.32592C4.03876 2.3187 3.96072 2.38691 3.9535 2.47741C3.94694 2.56792 4.01449 2.64662 4.105 2.65384L5.41537 2.75221L6.31256 4.30655L4.29397 4.15505C4.2028 4.14849 4.12476 4.21604 4.11754 4.30655C4.11098 4.39705 4.17853 4.47575 4.26904 4.48297L6.51127 4.65087L6.91199 5.34474L6.05153 5.84186V6.83612H5.2501L3.98301 4.9782C3.93186 4.90343 3.82955 4.88375 3.75478 4.93491C3.68001 4.98607 3.66034 5.08838 3.71149 5.16315L4.852 6.83553H3.05754L2.3171 5.74945C2.26594 5.67469 2.16363 5.65501 2.08886 5.70617C2.01409 5.75732 1.99442 5.85963 2.04557 5.9344L2.65943 6.83487H1.08804L0.778474 6.38038C0.727318 6.30562 0.625008 6.28594 0.550238 6.3371C0.475473 6.38825 0.455797 6.49056 0.506953 6.56533L0.690596 6.83423H0.164616C0.0741104 6.83423 0 6.90769 0 6.99885C0 7.08935 0.0734539 7.16346 0.164616 7.16346H0.690596L0.506953 7.43236C0.455797 7.50713 0.475473 7.60944 0.550238 7.6606C0.578439 7.68027 0.610576 7.68946 0.642711 7.68946C0.695178 7.68946 0.746988 7.66454 0.778469 7.61797L1.08803 7.16348H2.65943L2.04557 8.06395C1.99441 8.13871 2.01409 8.24103 2.08885 8.29218C2.11706 8.31186 2.14919 8.32104 2.18133 8.32104C2.23379 8.32104 2.28561 8.29612 2.31709 8.24956L3.05753 7.16348H4.85199L3.71148 8.83586C3.66033 8.91063 3.68 9.01294 3.75477 9.0641C3.78297 9.08377 3.81511 9.09296 3.84724 9.09296C3.89971 9.09296 3.95152 9.06803 3.983 9.02147L5.25008 7.16355H6.05151V8.1578L6.91197 8.65492L6.51126 9.3488L4.26903 9.51669C4.17852 9.52325 4.11031 9.60261 4.11753 9.69311C4.12409 9.78362 4.20279 9.85183 4.29395 9.84461L6.31255 9.69311L5.41535 11.2474L4.10499 11.3458C4.01448 11.3524 3.94627 11.4317 3.95349 11.5223C3.96005 11.6128 4.03875 11.681 4.12991 11.6737L5.21664 11.5924L4.43095 12.9533L3.88267 12.9946C3.79216 13.0012 3.72396 13.0805 3.73117 13.171C3.73773 13.2615 3.81643 13.3291 3.90759 13.3225L4.23224 13.2983L3.96925 13.7534C3.92399 13.8321 3.95088 13.9325 4.02958 13.9777C4.05582 13.9928 4.08402 14 4.11156 14C4.16862 14 4.22371 13.9705 4.25388 13.9174L4.51687 13.4622L4.65853 13.756C4.68673 13.8151 4.74576 13.8492 4.80675 13.8492C4.83036 13.8492 4.85528 13.8439 4.87824 13.8328C4.96022 13.7934 4.99432 13.695 4.95497 13.6131L4.71624 13.1173L5.50194 11.7564L5.97479 12.7388C6.003 12.7979 6.06202 12.832 6.12301 12.832C6.14662 12.832 6.17155 12.8267 6.1945 12.8156C6.27648 12.7762 6.31058 12.6778 6.27123 12.5959L5.70066 11.4114L6.59785 9.85708L7.47603 11.6816C7.50423 11.7406 7.56325 11.7747 7.62425 11.7747C7.64786 11.7747 7.67278 11.7695 7.69573 11.7583C7.77771 11.719 7.81182 11.6206 7.77247 11.5386L6.79658 9.51213L7.19729 8.81825L8.05841 9.31537L8.91952 8.81825L9.32024 9.51213L8.34435 11.5386C8.305 11.6206 8.3391 11.719 8.42108 11.7583C8.44404 11.7695 8.4683 11.7747 8.49257 11.7747C8.55356 11.7747 8.61259 11.7406 8.64079 11.6816L9.51896 9.85708L10.4162 11.4114L9.84558 12.5959C9.80623 12.6778 9.84033 12.7762 9.92231 12.8156C9.94527 12.8267 9.96953 12.832 9.9938 12.832C10.0548 12.832 10.1138 12.7979 10.142 12.7388L10.6149 11.7564L11.4006 13.1173L11.1618 13.6131C11.1225 13.695 11.1566 13.7934 11.2386 13.8328C11.2615 13.8439 11.2858 13.8492 11.3101 13.8492C11.3711 13.8492 11.4301 13.8151 11.4583 13.756L11.5999 13.4622L11.8629 13.9174C11.8931 13.9698 11.9488 14 12.0053 14C12.0328 14 12.061 13.9928 12.0872 13.9777C12.1659 13.9324 12.1928 13.8321 12.1476 13.7534L11.8846 13.2983L12.2092 13.3225C12.2991 13.3291 12.3784 13.2615 12.3856 13.171C12.3922 13.0805 12.3247 13.0018 12.2341 12.9946L11.6859 12.9533L10.9002 11.5924L11.9869 11.6737C12.0768 11.681 12.1561 11.6128 12.1633 11.5223C12.1699 11.4317 12.1023 11.353 12.0118 11.3458L10.7015 11.2474L9.80427 9.69311L11.8229 9.84461C11.9134 9.85183 11.9921 9.78362 11.9993 9.69311C12.0058 9.60261 11.9383 9.52391 11.8478 9.51669L9.60556 9.3488L9.20484 8.65492L10.0653 8.1578V7.16355H10.8667L12.1338 9.02147C12.1653 9.06803 12.2171 9.09296 12.2696 9.09296C12.3017 9.09296 12.3338 9.08377 12.362 9.0641C12.4368 9.01294 12.4565 8.91063 12.4053 8.83586L11.2648 7.16348H13.0593L13.7997 8.24956C13.8312 8.29612 13.883 8.32104 13.9355 8.32104C13.9676 8.32104 13.9998 8.31186 14.028 8.29218C14.1027 8.24103 14.1224 8.13872 14.0712 8.06395L13.4574 7.16348H15.0288L15.3383 7.61797C15.3698 7.66454 15.4216 7.68946 15.4741 7.68946C15.5062 7.68946 15.5384 7.68028 15.5666 7.6606C15.6413 7.60944 15.661 7.50713 15.6099 7.43236L15.4262 7.16346H15.9522C16.0427 7.16346 16.1168 7.09001 16.1168 6.99885C16.1168 6.90834 16.0434 6.83423 15.9522 6.83423Z" fill="white"/>
</svg>
