<svg width="42" height="32" viewBox="0 0 42 32" fill="none" xmlns="http://www.w3.org/2000/svg">
<path d="M36.1239 31.9995H5.25631C5.07903 31.9995 4.90902 31.9291 4.78367 31.8037C4.65831 31.6784 4.58789 31.5084 4.58789 31.3311V9.76119C4.58789 9.58392 4.65831 9.4139 4.78367 9.28855C4.90902 9.1632 5.07903 9.09277 5.25631 9.09277C5.43359 9.09277 5.6036 9.1632 5.72895 9.28855C5.85431 9.4139 5.92473 9.58392 5.92473 9.76119V30.6627H35.4555V9.76119C35.4555 9.58392 35.5259 9.4139 35.6513 9.28855C35.7766 9.1632 35.9466 9.09277 36.1239 9.09277C36.3012 9.09277 36.4712 9.1632 36.5966 9.28855C36.7219 9.4139 36.7923 9.58392 36.7923 9.76119V31.3311C36.7923 31.5084 36.7219 31.6784 36.5966 31.8037C36.4712 31.9291 36.3012 31.9995 36.1239 31.9995Z" fill="black"/>
<path d="M40.7425 13.1037C40.6228 13.1018 40.5055 13.0696 40.4016 13.0101L20.6899 1.43976L0.97825 13.0101C0.825489 13.09 0.647759 13.1078 0.482185 13.0598C0.316612 13.0117 0.176001 12.9016 0.0897245 12.7523C0.00344774 12.6031 -0.0218219 12.4262 0.019194 12.2588C0.06021 12.0913 0.164339 11.9462 0.30983 11.8537L20.3624 0.0895509C20.464 0.0308848 20.5793 0 20.6966 0C20.8139 0 20.9292 0.0308848 21.0308 0.0895509L41.0834 11.8537C41.2358 11.9442 41.3461 12.0914 41.39 12.2632C41.4339 12.4349 41.4077 12.617 41.3174 12.7695C41.259 12.8705 41.1753 12.9545 41.0744 13.0131C40.9736 13.0718 40.8592 13.103 40.7425 13.1037Z" fill="black"/>
<path d="M30.3485 32.0003C30.1713 32.0003 30.0012 31.9299 29.8759 31.8045C29.7505 31.6792 29.6801 31.5092 29.6801 31.3319V19.7148H11.6996V31.3319C11.6996 31.5092 11.6292 31.6792 11.5039 31.8045C11.3785 31.9299 11.2085 32.0003 11.0312 32.0003C10.8539 32.0003 10.6839 31.9299 10.5586 31.8045C10.4332 31.6792 10.3628 31.5092 10.3628 31.3319V19.0463C10.3628 18.8691 10.4332 18.6991 10.5586 18.5737C10.6839 18.4484 10.8539 18.3779 11.0312 18.3779H30.3485C30.5258 18.3779 30.6958 18.4484 30.8212 18.5737C30.9465 18.6991 31.017 18.8691 31.017 19.0463V31.3319C31.017 31.5092 30.9465 31.6792 30.8212 31.8045C30.6958 31.9299 30.5258 32.0003 30.3485 32.0003Z" fill="black"/>
<path d="M30.3485 22.6825H11.0312C10.8539 22.6825 10.6839 22.6121 10.5586 22.4868C10.4332 22.3614 10.3628 22.1914 10.3628 22.0141C10.3628 21.8368 10.4332 21.6668 10.5586 21.5415C10.6839 21.4161 10.8539 21.3457 11.0312 21.3457H30.3485C30.5258 21.3457 30.6958 21.4161 30.8212 21.5415C30.9465 21.6668 31.017 21.8368 31.017 22.0141C31.017 22.1914 30.9465 22.3614 30.8212 22.4868C30.6958 22.6121 30.5258 22.6825 30.3485 22.6825Z" fill="black"/>
<path d="M30.3485 25.8573H11.0312C10.8539 25.8573 10.6839 25.7869 10.5586 25.6616C10.4332 25.5362 10.3628 25.3662 10.3628 25.1889C10.3628 25.0117 10.4332 24.8416 10.5586 24.7163C10.6839 24.5909 10.8539 24.5205 11.0312 24.5205H30.3485C30.5258 24.5205 30.6958 24.5909 30.8212 24.7163C30.9465 24.8416 31.017 25.0117 31.017 25.1889C31.017 25.3662 30.9465 25.5362 30.8212 25.6616C30.6958 25.7869 30.5258 25.8573 30.3485 25.8573Z" fill="black"/>
<path d="M30.3485 29.0253H11.0312C10.8539 29.0253 10.6839 28.9549 10.5586 28.8295C10.4332 28.7042 10.3628 28.5342 10.3628 28.3569C10.3628 28.1796 10.4332 28.0096 10.5586 27.8843C10.6839 27.7589 10.8539 27.6885 11.0312 27.6885H30.3485C30.5258 27.6885 30.6958 27.7589 30.8212 27.8843C30.9465 28.0096 31.017 28.1796 31.017 28.3569C31.017 28.5342 30.9465 28.7042 30.8212 28.8295C30.6958 28.9549 30.5258 29.0253 30.3485 29.0253Z" fill="black"/>
<path d="M28.5573 16.793C27.9056 16.7911 27.2649 16.6247 26.6947 16.3092C26.1245 15.9937 25.6432 15.5394 25.2954 14.9883H16.0846C15.7098 15.5732 15.1838 16.0458 14.5623 16.356C13.9407 16.6663 13.2469 16.8026 12.5541 16.7505C11.8614 16.6985 11.1957 16.4599 10.6276 16.0603C10.0594 15.6606 9.60994 15.1146 9.32686 14.4803C9.28221 14.3783 9.26371 14.2669 9.27305 14.156C9.28239 14.0451 9.31926 13.9383 9.38033 13.8453C9.44088 13.7533 9.5232 13.6777 9.61999 13.6253C9.71677 13.5728 9.82502 13.545 9.93512 13.5445H12.1877V12.3346H9.9017C9.7916 12.3341 9.68335 12.3063 9.58657 12.2538C9.48978 12.2014 9.40746 12.1258 9.34691 12.0338C9.28698 11.9416 9.25075 11.836 9.24142 11.7264C9.23209 11.6168 9.24996 11.5066 9.29343 11.4055C9.59059 10.7168 10.0835 10.1305 10.7109 9.71933C11.3383 9.30819 12.0726 9.09033 12.8227 9.09279C13.4744 9.09466 14.115 9.26105 14.6852 9.57654C15.2555 9.89203 15.7368 10.3464 16.0846 10.8975H25.2954C25.6432 10.3464 26.1245 9.89203 26.6947 9.57654C27.2649 9.26105 27.9056 9.09466 28.5573 9.09279C29.3074 9.09033 30.0417 9.30819 30.6691 9.71933C31.2965 10.1305 31.7894 10.7168 32.0865 11.4055C32.13 11.5066 32.1479 11.6168 32.1385 11.7264C32.1292 11.836 32.093 11.9416 32.0331 12.0338C31.9725 12.1258 31.8902 12.2014 31.7934 12.2538C31.6966 12.3063 31.5884 12.3341 31.4783 12.3346H29.2257V13.5445H31.4783C31.5884 13.545 31.6966 13.5728 31.7934 13.6253C31.8902 13.6777 31.9725 13.7533 32.0331 13.8453C32.0941 13.9383 32.131 14.0451 32.1403 14.156C32.1497 14.2669 32.1312 14.3783 32.0865 14.4803C31.7865 15.1669 31.293 15.7513 30.6662 16.1621C30.0395 16.5728 29.3066 16.792 28.5573 16.793ZM15.6902 13.6514H25.7165C25.8418 13.6512 25.9646 13.6861 26.071 13.7523C26.1773 13.8185 26.263 13.9132 26.3181 14.0257C26.4817 14.3706 26.722 14.6735 27.0205 14.9113C27.319 15.1492 27.6679 15.3157 28.0406 15.3983C28.4133 15.4808 28.7999 15.4771 29.1709 15.3875C29.5419 15.2979 29.8876 15.1248 30.1815 14.8813H28.5573C28.38 14.8813 28.21 14.8109 28.0846 14.6855C27.9593 14.5602 27.8889 14.3902 27.8889 14.2129V11.6662C27.8889 11.4889 27.9593 11.3189 28.0846 11.1936C28.21 11.0682 28.38 10.9978 28.5573 10.9978H30.1615C29.7075 10.6305 29.1413 10.43 28.5573 10.4296C28.0838 10.4294 27.6199 10.5629 27.2191 10.8148C26.8182 11.0667 26.4966 11.4267 26.2913 11.8534C26.2367 11.9681 26.1504 12.0649 26.0427 12.1324C25.9349 12.1999 25.8102 12.2353 25.6831 12.2344H15.6902C15.5642 12.234 15.4409 12.1981 15.3345 12.1306C15.228 12.0632 15.1428 11.9671 15.0886 11.8534C14.886 11.4247 14.565 11.0629 14.1635 10.8107C13.7621 10.5584 13.2968 10.4262 12.8227 10.4296C12.2387 10.43 11.6725 10.6305 11.2185 10.9978H12.8227C13 10.9978 13.17 11.0682 13.2953 11.1936C13.4207 11.3189 13.4911 11.4889 13.4911 11.6662V14.2129C13.4911 14.3902 13.4207 14.5602 13.2953 14.6855C13.17 14.8109 13 14.8813 12.8227 14.8813H11.2252C11.5191 15.1248 11.8648 15.2979 12.2358 15.3875C12.6069 15.4771 12.9934 15.4808 13.3661 15.3983C13.7388 15.3157 14.0877 15.1492 14.3862 14.9113C14.6847 14.6735 14.925 14.3706 15.0886 14.0257C15.1438 13.9132 15.2294 13.8185 15.3357 13.7523C15.4421 13.6861 15.5649 13.6512 15.6902 13.6514Z" fill="#2E7D32"/>
</svg>
